<svg xmlns="http://www.w3.org/2000/svg" viewBox="0 0 1515 1038" role="img" aria-label="Machea"><path fill-rule="evenodd" fill="#FC4633" d="M 652.9,89.7 C 612.2,128.8 558.5,180.2 526.1,210.9 C 492.6,242.7 384.9,343.6 353,373 C 345.6,379.9 329.4,395 317,406.5 C 304.6,418.1 284.1,437 271.5,448.5 C 258.9,460.1 244.8,473.1 240.1,477.5 C 235.4,481.9 221.8,494.3 210.1,505 C 198.3,515.7 174.2,537.7 156.6,553.9 C 138.9,570.1 117.6,589.6 109.3,597.3 C 100.9,605 94,611.5 94,611.7 C 94,612 99.5,618.2 106.3,625.4 C 113,632.7 130.9,652.3 146.1,669.1 C 161.3,685.8 176.6,702.6 180.1,706.4 L 186.5,713.3 207.4,694.9 C 219,684.8 232.2,673.2 236.9,669.1 C 241.6,665 249.6,658 254.5,653.6 C 268.2,641.2 276.6,634 277.5,634 C 277.9,634 277.9,705.6 277.5,793 L 276.7,952 346.9,952 L 417,952 417,731.1 L 417,510.3 445.2,483.9 C 460.7,469.4 480.6,450.8 489.5,442.5 C 504.8,428.2 537,398.1 624.4,316 C 645.8,295.9 664.6,278.4 666.2,277.1 L 669.1,274.8 675.8,281.1 C 679.5,284.6 716,320.5 757,361 C 858.2,461 863.9,466.5 865.5,466.5 C 866.8,466.5 894.7,439.8 945.6,389.9 L 967.8,368.2 937.6,338.4 C 853.9,255.4 810.4,212.5 746.5,149.5 C 707.9,111.5 674.8,79 672.9,77.2 L 669.3,73.9 652.9,89.7 M 1412.5,157.7 C 1408.1,158.4 1394.2,160.6 1381.5,162.5 C 1368.9,164.4 1356,166.5 1353,167 C 1350,167.5 1339.9,169.1 1330.5,170.6 C 1314.4,173 1290.7,176.7 1263,181 C 1256.1,182 1243.5,184 1235,185.4 C 1226.5,186.8 1208.7,189.5 1195.5,191.5 C 1182.3,193.5 1151.7,198.2 1127.5,202 C 1103.3,205.8 1082.2,209 1080.6,209.2 C 1078,209.5 1079.5,211 1099.7,229 C 1140,264.9 1169,291.2 1169,291.8 C 1169,292.6 1126.7,331.9 1086.9,368.1 C 1073.4,380.4 1048.2,403.5 1030.9,419.5 C 995.5,452 974.6,471.1 955.5,488.4 C 948.4,494.9 938.8,503.6 934.2,507.7 C 929.6,511.9 919.7,520.7 912.1,527.4 C 904.5,534 894.5,542.9 889.9,547.1 C 878.3,557.5 837.9,593.4 831,599.5 C 818.5,610.4 804,623.1 770,652.9 C 750.5,670 734.1,684 733.6,684 C 733.1,684 700.6,651.9 661.3,612.8 C 622,573.6 589.8,541.4 589.7,541.4 C 589.6,541.3 566.4,564 538.1,591.9 L 486.6,642.6 512.6,668 C 567.9,722.2 593.3,747.3 643.5,797 C 731.5,884.1 730.9,883.6 732.4,882.5 C 733.2,881.9 739.6,876.1 746.7,869.5 C 753.8,862.9 772.6,845.6 788.5,831 C 804.4,816.4 824,798.4 832,791 C 840,783.5 855.3,769.4 866,759.5 C 887.7,739.6 957.6,675 1019.5,617.5 C 1027.8,609.8 1042,596.8 1051.1,588.5 C 1060.1,580.3 1071.8,569.5 1077,564.5 C 1082.2,559.6 1091.5,551 1097.5,545.4 C 1110,534 1130.3,515.2 1159.5,488 C 1170.5,477.8 1187.8,461.8 1198,452.5 C 1208.2,443.2 1225.3,427.4 1236,417.4 C 1246.7,407.3 1256.7,398.2 1258.1,397.1 L 1260.7,395.1 1297.2,432.8 C 1317.2,453.5 1337.6,474.7 1342.5,479.8 C 1347.3,484.9 1351.4,488.9 1351.6,488.7 C 1352,488.3 1358.8,456 1377.5,365 C 1379.9,353.2 1383.3,337 1385,329 C 1386.7,321 1390.1,304.8 1392.5,293 C 1394.9,281.2 1398.8,262.7 1401,252 C 1403.2,241.3 1405.5,230.5 1406,228 C 1406.5,225.5 1408.9,214.1 1411.4,202.5 C 1415.9,181.8 1420.9,156.6 1420.6,156.4 C 1420.6,156.4 1416.9,156.9 1412.5,157.7 M 1179.3,558.3 C 1156.3,580 1127.8,607.1 1102.9,630.7 L 1076.3,656.1 1075.7,765.7 C 1075.3,826 1075,892.6 1075,913.7 L 1075,952 1152,952 L 1229,952 1229,773.5 L 1229,595 1218.3,582.3 C 1206,567.6 1189.9,549 1189.5,549 C 1189.3,549 1184.8,553.2 1179.3,558.3 Z"/></svg>
